<?xml version="1.0" encoding="UTF-8" standalone="no"?>
<svg
   xmlns:dc="http://purl.org/dc/elements/1.1/"
   xmlns:cc="http://creativecommons.org/ns#"
   xmlns:rdf="http://www.w3.org/1999/02/22-rdf-syntax-ns#"
   xmlns:svg="http://www.w3.org/2000/svg"
   xmlns="http://www.w3.org/2000/svg"
   xmlns:sodipodi="http://sodipodi.sourceforge.net/DTD/sodipodi-0.dtd"
   xmlns:inkscape="http://www.inkscape.org/namespaces/inkscape"
   width="200"
   height="200"
   viewBox="0 0 52.916666 52.916667"
   version="1.1"
   id="svg1092"
   inkscape:export-filename="/home/ryan/dev/defi/shadowtokens/src/assets/logo.png"
   inkscape:export-xdpi="288.00003"
   inkscape:export-ydpi="288.00003"
   inkscape:version="1.0.1 (3bc2e813f5, 2020-09-07)"
   sodipodi:docname="logo.svg">
  <defs
     id="defs1086" />
  <sodipodi:namedview
     id="base"
     pagecolor="#ffffff"
     bordercolor="#666666"
     borderopacity="1.0"
     inkscape:pageopacity="0.0"
     inkscape:pageshadow="2"
     inkscape:zoom="2.8"
     inkscape:cx="67.945592"
     inkscape:cy="111.10037"
     inkscape:document-units="mm"
     inkscape:current-layer="layer1"
     inkscape:document-rotation="0"
     showgrid="false"
     fit-margin-top="0"
     fit-margin-left="0"
     fit-margin-right="0"
     fit-margin-bottom="0"
     units="px"
     inkscape:window-width="1853"
     inkscape:window-height="1025"
     inkscape:window-x="67"
     inkscape:window-y="27"
     inkscape:window-maximized="1" />
  <metadata
     id="metadata1089">
    <rdf:RDF>
      <cc:Work
         rdf:about="">
        <dc:format>image/svg+xml</dc:format>
        <dc:type
           rdf:resource="http://purl.org/dc/dcmitype/StillImage" />
        <dc:title></dc:title>
      </cc:Work>
    </rdf:RDF>
  </metadata>
  <g
     inkscape:label="Layer 1"
     inkscape:groupmode="layer"
     id="layer1"
     transform="translate(-28.200697,78.460931)">
    <g
       id="g1665"
       transform="matrix(0.59400656,0,0,0.59400656,11.551125,-27.305361)">
      <path
         d="m 116.97107,-47.948967 c 0,-5.566127 -4.51097,-10.077802 -10.07745,-10.077802 -5.56578,0 -10.077099,4.511675 -10.077099,10.077802 0,5.286375 4.074939,9.622017 9.255829,10.040408 -1.83409,16.832086 -16.131466,29.975527 -33.442976,29.975527 -9.153525,0 -17.715442,-3.6322 -24.019579,-10.080625 h 31.945792 c 8.120943,0 14.727764,-6.606823 14.727764,-14.728118 0,-8.12024 -6.606821,-14.726709 -14.727764,-14.726709 l -15.611475,-0.0011 c -1.468967,0 -2.663825,-1.194858 -2.663825,-2.663825 0,-1.468967 1.194858,-2.664177 2.663825,-2.664177 h 28.581702 c 0.995185,0 1.802341,-0.806803 1.802341,-1.802342 0,-0.995539 -0.807156,-1.802342 -1.802341,-1.802342 H 64.944112 c -3.456517,0 -6.268863,2.812345 -6.268863,6.268861 0,3.456517 2.812346,6.268508 6.268863,6.268508 l 15.611475,0.0011 c 6.133393,0 11.123081,4.989335 11.123081,11.122025 0,6.13375 -4.989688,11.123435 -11.123081,11.123435 H 45.045328 l -0.383822,-0.0035 c -0.692856,-0.0035 -1.325739,0.383466 -1.632303,1.0033 -0.306564,0.619826 -0.231422,1.360659 0.193322,1.906058 7.116586,9.141175 17.835032,14.383809 29.406849,14.383809 19.427473,0 35.426646,-14.951075 37.101286,-33.951334 4.18429,-1.225902 7.24041,-5.090935 7.24041,-9.668936"
         style="opacity:1;fill:#ff566e;fill-opacity:1;fill-rule:nonzero;stroke:none;stroke-width:0.352777"
         id="path5022-0" />
      <path
         d="m 102.24947,-64.166761 c -7.115519,-9.316155 -17.911577,-14.659327 -29.620271,-14.659327 -19.596453,0 -35.70605,15.210366 -37.143972,34.44522 -4.221339,1.201915 -7.313436,5.083882 -7.313436,9.690807 0,5.563309 4.511675,10.076743 10.07745,10.076743 5.565775,0 10.076744,-4.513434 10.076744,-10.076743 0,-5.267674 -4.04107,-9.5885 -9.19233,-10.036882 1.592791,-17.080087 16.00588,-30.494462 33.495544,-30.494462 9.302044,0 17.966619,3.7338 24.292272,10.360025 H 64.944286 c -8.120943,0 -14.727412,6.606822 -14.727412,14.728119 0,8.12024 6.606469,14.726708 14.727412,14.726708 l 15.611475,0.0011 c 1.468967,0 2.663825,1.19521 2.663825,2.663825 0,1.469318 -1.194858,2.664883 -2.663825,2.664883 H 51.974413 c -0.995187,0 -1.802342,0.806802 -1.802342,1.802342 0,0.995185 0.807155,1.802341 1.802342,1.802341 h 28.581348 c 3.456517,0 6.268509,-2.812698 6.268509,-6.269566 0,-3.456517 -2.811992,-6.268157 -6.268509,-6.268157 l -15.611475,-0.0011 c -6.133041,0 -11.122376,-4.989687 -11.122376,-11.122377 0,-6.133394 4.989335,-11.123436 11.122376,-11.123436 h 35.527544 c 0.024,0 0.048,-3.44e-4 0.072,-0.0014 l 0.34537,-0.01376 c 0.67168,-0.02681 1.27317,-0.42545 1.55892,-1.034345 0.2861,-0.608894 0.20955,-1.326092 -0.19861,-1.86055"
         style="fill:#4e92ff;fill-opacity:1;fill-rule:nonzero;stroke:none;stroke-width:0.352777"
         id="path5026-4" />
    </g>
  </g>
</svg>
