<?xml version="1.0" encoding="UTF-8" standalone="no"?>
<svg
   xmlns:dc="http://purl.org/dc/elements/1.1/"
   xmlns:cc="http://creativecommons.org/ns#"
   xmlns:rdf="http://www.w3.org/1999/02/22-rdf-syntax-ns#"
   xmlns:svg="http://www.w3.org/2000/svg"
   xmlns="http://www.w3.org/2000/svg"
   xmlns:sodipodi="http://sodipodi.sourceforge.net/DTD/sodipodi-0.dtd"
   xmlns:inkscape="http://www.inkscape.org/namespaces/inkscape"
   width="384.83862mm"
   height="76.892204mm"
   viewBox="0 0 384.83862 76.892204"
   version="1.1"
   id="svg7913"
   inkscape:version="1.0.1 (3bc2e813f5, 2020-09-07)"
   sodipodi:docname="logo_title6.svg">
  <defs
     id="defs7907">
    <clipPath
       clipPathUnits="userSpaceOnUse"
       id="clipPath7619">
      <rect
         style="fill:#00ffff;fill-opacity:1;stroke:none;stroke-width:8.14643;stroke-miterlimit:4;stroke-dasharray:none;stroke-opacity:1"
         id="rect7621"
         width="151.17584"
         height="167.01715"
         x="1179.4635"
         y="-58.196487"
         transform="scale(1,-1)" />
    </clipPath>
    <clipPath
       clipPathUnits="userSpaceOnUse"
       id="clipPath7575">
      <rect
         style="fill:#ff2a2a;fill-opacity:1;stroke:none;stroke-width:9.99;stroke-miterlimit:4;stroke-dasharray:none;stroke-opacity:1"
         id="rect7577"
         width="151.53786"
         height="165.51013"
         x="1636.2778"
         y="-156.50902"
         transform="scale(1,-1)" />
    </clipPath>
  </defs>
  <sodipodi:namedview
     id="base"
     pagecolor="#ffffff"
     bordercolor="#666666"
     borderopacity="1.0"
     inkscape:pageopacity="0.0"
     inkscape:pageshadow="2"
     inkscape:zoom="0.1767767"
     inkscape:cx="-165.94916"
     inkscape:cy="-210.88999"
     inkscape:document-units="mm"
     inkscape:current-layer="layer1"
     inkscape:document-rotation="0"
     showgrid="false"
     fit-margin-top="0"
     fit-margin-left="0"
     fit-margin-right="0"
     fit-margin-bottom="0"
     inkscape:window-width="1853"
     inkscape:window-height="1025"
     inkscape:window-x="67"
     inkscape:window-y="27"
     inkscape:window-maximized="1" />
  <metadata
     id="metadata7910">
    <rdf:RDF>
      <cc:Work
         rdf:about="">
        <dc:format>image/svg+xml</dc:format>
        <dc:type
           rdf:resource="http://purl.org/dc/dcmitype/StillImage" />
        <dc:title></dc:title>
      </cc:Work>
    </rdf:RDF>
  </metadata>
  <g
     inkscape:label="Layer 1"
     inkscape:groupmode="layer"
     id="layer1"
     transform="translate(73.734795,-33.369376)">
    <g
       id="g5460-8-9-6"
       transform="matrix(0.96265409,0,0,-0.96265409,5.6641886,53.128391)"
       style="fill:#808080">
      <path
         d="m 0,0 c -1.35,0 -2.784,-0.956 -2.784,-2.73 v -13.484 h -7.808 V -2.73 c 0,1.558 -1.199,2.73 -2.785,2.73 -1.557,0 -2.732,-1.172 -2.732,-2.73 v -33.208 c 0,-1.613 1.149,-2.783 2.732,-2.783 1.586,0 2.785,1.197 2.785,2.783 v 14.207 h 7.808 v -14.207 c 0,-1.807 1.434,-2.783 2.784,-2.783 1.357,0 2.73,0.954 2.73,2.783 V -2.73 C 2.73,-1.172 1.557,0 0,0"
         style="fill:#808080;fill-opacity:1;fill-rule:nonzero;stroke:none"
         id="path5462-4-6-0" />
    </g>
    <g
       id="g5464-2-5-90"
       transform="matrix(0.96265409,0,0,-0.96265409,24.441526,68.688378)"
       style="fill:#808080">
      <path
         d="M 0,0 H -7.578 V 10.125 C -3.896,8.81 -1.025,4.989 0,0 m -10.311,16.217 c -1.482,0 -2.785,-1.325 -2.785,-2.835 v -33.054 c 0,-1.807 1.436,-2.784 2.785,-2.784 1.359,0 2.733,0.957 2.733,2.784 v 14.158 h 7.912 v -14.158 c 0,-1.612 1.147,-2.784 2.73,-2.784 1.35,0 2.785,0.977 2.785,2.784 v 16.526 c 0,9.352 -6.494,19.363 -16.16,19.363"
         style="fill:#808080;fill-opacity:1;fill-rule:nonzero;stroke:none"
         id="path5466-5-7-7" />
    </g>
    <g
       id="g5468-4-4-6"
       transform="matrix(0.96265409,0,0,-0.96265409,48.229649,71.864408)"
       style="fill:#808080">
      <path
         d="M 0,0 C 0,-6.536 -4.021,-12.089 -9.564,-13.529 V 13.818 C -4.409,12.664 0,6.491 0,0 m -10.955,19.463 c -3.723,0 -4.125,-1.909 -4.125,-2.731 v -33.311 c 0,-1.609 1.379,-2.73 3.351,-2.73 9.348,0 17.247,8.841 17.247,19.309 0,10.186 -7.851,19.463 -16.473,19.463"
         style="fill:#808080;fill-opacity:1;fill-rule:nonzero;stroke:none"
         id="path5470-2-3-6" />
    </g>
    <g
       id="g5472-7-9-8"
       transform="matrix(0.96265409,0,0,-0.96265409,74.773107,86.064017)"
       style="fill:#808080">
      <path
         d="m 0,0 c -8.172,0 -14.821,6.64 -14.821,14.801 0,8.3 6.509,14.801 14.821,14.801 8.149,0 14.779,-6.64 14.779,-14.801 C 14.779,6.64 8.149,0 0,0 m 0.005,34.712 c -11.179,0 -19.936,-8.747 -19.936,-19.911 0,-10.978 8.942,-19.91 19.936,-19.91 10.965,0 19.883,8.932 19.883,19.91 0,10.978 -8.918,19.911 -19.883,19.911"
         style="fill:#808080;fill-opacity:1;fill-rule:nonzero;stroke:none"
         id="path5474-5-4-7" />
    </g>
    <g
       id="g5476-7-4-7"
       transform="matrix(0.96265409,0,0,-0.96265409,124.4476,53.128391)"
       style="fill:#808080">
      <path
         d="m 0,0 c -1.356,0 -2.731,-0.954 -2.731,-2.781 v -29.865 c -4.581,1.568 -7.826,6.866 -7.913,13.234 0,1.586 -1.195,2.784 -2.783,2.784 -1.357,0 -2.731,-0.955 -2.731,-2.784 0,-6.388 -3.226,-11.684 -7.861,-13.242 v 29.873 c 0,1.611 -1.169,2.781 -2.784,2.781 -1.357,0 -2.731,-0.954 -2.731,-2.781 v -33.21 c 0,-1.349 0.957,-2.781 2.731,-2.781 5.443,0 10.308,3.182 13.394,8.638 3.165,-5.456 8.038,-8.638 13.409,-8.638 1.81,0 2.786,1.432 2.786,2.781 v 33.21 C 2.786,-0.975 1.351,0 0,0"
         style="fill:#808080;fill-opacity:1;fill-rule:nonzero;stroke:none"
         id="path5478-5-0-6" />
    </g>
    <g
       id="g5480-2-6-6"
       transform="matrix(0.96265409,0,0,-0.96265409,147.31812,55.805788)"
       style="fill:#ffffff">
      <path
         d="m 0,0 c 0,1.611 -1.149,2.781 -2.732,2.781 h -13.377 c -1.582,0 -2.732,-1.17 -2.732,-2.781 0,-1.584 1.15,-2.732 2.732,-2.732 h 3.983 v -30.424 c 0,-1.587 1.195,-2.784 2.782,-2.784 1.585,0 2.733,1.17 2.733,2.784 v 30.424 h 3.879 C -1.149,-2.732 0,-1.584 0,0"
         style="fill:#ffffff;fill-opacity:1;fill-rule:nonzero;stroke:none"
         id="path5482-2-0-5" />
    </g>
    <g
       id="g5484-8-2-3"
       transform="matrix(0.96265409,0,0,-0.96265409,165.37261,52.674391)"
       style="fill:#ffffff">
      <path
         d="m 0,0 c -11.179,0 -19.935,-8.735 -19.935,-19.884 0,-10.963 8.942,-19.883 19.935,-19.883 10.964,0 19.883,8.92 19.883,19.883 C 19.883,-8.919 10.964,0 0,0"
         style="fill:#ffffff;fill-opacity:1;fill-rule:nonzero;stroke:none"
         id="path5486-6-2-7" />
    </g>
    <g
       id="g5488-6-8-6"
       transform="matrix(0.96265409,0,0,-0.96265409,194.6677,66.387985)"
       style="fill:#ffffff">
      <path
         d="m 0,0 7.604,9.616 c 0.697,0.863 0.838,1.955 0.377,2.922 -0.464,0.971 -1.452,1.599 -2.514,1.599 -0.836,0 -1.624,-0.414 -2.145,-1.107 L -2.234,6.012 v 5.444 c 0,1.56 -1.174,2.733 -2.732,2.733 -1.348,0 -2.783,-0.956 -2.783,-2.733 v -33.673 c 0,-1.557 1.196,-2.73 2.783,-2.73 1.53,0 2.732,1.2 2.732,2.73 v 17.18 c 4.837,-1.58 8.326,-7.241 8.326,-13.875 v -3.305 c 0,-1.53 1.2,-2.73 2.731,-2.73 1.367,0 2.783,1.021 2.783,2.73 v 3.305 C 11.606,-10.203 6.829,-2.588 0,0"
         style="fill:#ffffff;fill-opacity:1;fill-rule:nonzero;stroke:none"
         id="path5490-0-4-9" />
    </g>
    <g
       id="g5492-0-3-7"
       transform="matrix(0.96265409,0,0,-0.96265409,224.14429,58.386798)"
       style="fill:#ffffff">
      <path
         d="M 0,0 C 1.587,0 2.784,1.173 2.784,2.732 2.784,4.101 1.742,5.516 0,5.516 h -13.377 c -1.56,0 -2.783,-1.224 -2.783,-2.784 v -33.207 c 0,-1.507 1.25,-2.733 2.783,-2.733 H 0 c 1.742,0 2.784,1.416 2.784,2.785 0,1.556 -1.197,2.732 -2.784,2.732 h -10.645 v 10.958 h 8.063 c 1.59,0 2.836,1.221 2.836,2.783 0,1.56 -1.22,2.732 -2.836,2.732 h -8.063 V 0 Z"
         style="fill:#ffffff;fill-opacity:1;fill-rule:nonzero;stroke:none"
         id="path5494-9-1-2" />
    </g>
    <g
       id="g5496-1-1-6"
       transform="matrix(0.96265409,0,0,-0.96265409,244.67959,53.026922)"
       style="fill:#ffffff">
      <path
         d="m 0,0 c -1.35,0 -2.782,-0.995 -2.782,-2.836 v -2.145 c -3.072,3.203 -6.739,4.929 -10.594,4.929 -1.582,0 -2.731,-1.171 -2.731,-2.784 v -33.207 c 0,-1.719 1.444,-2.784 2.782,-2.784 1.343,0 2.734,1.042 2.734,2.784 v 29.819 c 4.482,-1.685 7.809,-7.05 7.809,-12.983 v -16.784 c 0,-1.775 1.414,-2.836 2.782,-2.836 1.343,0 2.731,1.061 2.731,2.836 V -2.836 C 2.731,-0.995 1.324,0 0,0"
         style="fill:#ffffff;fill-opacity:1;fill-rule:nonzero;stroke:none"
         id="path5498-2-1-40" />
    </g>
    <g
       id="g7629"
       transform="matrix(0.35277777,0,0,-0.35277777,-422.45234,-5.5108975)"
       style="fill:#ffffff">
      <path
         d="m 2079.3719,-217.21653 c 0,14.15863 -11.4746,25.63504 -25.6341,25.63504 -14.1578,0 -25.6333,-11.4764 -25.6333,-25.63504 0,-13.44704 10.3655,-24.47565 23.5442,-25.53993 -4.6655,-42.816 -41.0339,-76.24914 -85.0694,-76.24914 -23.2839,0 -45.063,9.23929 -61.0989,25.64222 h 81.261 c 20.6574,0 37.4631,16.80587 37.4631,37.4641 0,20.65558 -16.8057,37.46054 -37.4631,37.46054 l -39.7111,0.002 c -3.7367,0 -6.7762,3.03937 -6.7762,6.77599 0,3.73665 3.0395,6.77692 6.7762,6.77692 h 72.7035 c 2.5315,0 4.5848,2.05227 4.5848,4.58464 0,2.53236 -2.0533,4.58464 -4.5848,4.58464 h -72.7035 c -8.7925,0 -15.9464,-7.1538 -15.9464,-15.9462 0,-8.79238 7.1539,-15.94527 15.9464,-15.94527 l 39.7111,-0.002 c 15.6016,0 28.2938,-12.69143 28.2938,-28.29125 0,-15.60248 -12.6922,-28.29482 -28.2938,-28.29482 h -90.328 l -0.9764,0.009 c -1.7623,0.009 -3.3723,-0.97544 -4.152,-2.55212 -0.7799,-1.57665 -0.5887,-3.46112 0.4917,-4.84845 18.1026,-23.25254 45.3673,-36.58829 74.8026,-36.58829 49.4179,0 90.1152,38.03125 94.3751,86.36247 10.6436,3.11833 18.4175,12.94987 18.4175,24.59499"
         style="fill:#ffffff;fill-opacity:1;fill-rule:nonzero;stroke:none;stroke-width:0.897364"
         id="path5022-5" />
    </g>
    <path
       d="M -7.4517008,46.486217 C -13.818528,38.150326 -23.478607,33.369376 -33.955295,33.369376 c -17.534466,0 -31.948966,13.609901 -33.235582,30.820825 -3.777177,1.07545 -6.543918,4.548949 -6.543918,8.671122 0,4.977924 4.036945,9.016453 9.017067,9.016453 4.980164,0 9.01647,-4.038529 9.01647,-9.016453 0,-4.7134 -3.615866,-8.57958 -8.225119,-8.980784 1.425222,-15.282883 14.321719,-27.285773 29.971082,-27.285773 8.323298,0 16.076154,3.340922 21.736226,9.269924 h -28.6125 c -7.266446,0 -13.177766,5.911638 -13.177766,13.178398 0,7.265811 5.91132,13.177135 13.177766,13.177135 l 13.968801,0.0011 c 1.314414,0 2.383543,1.069446 2.383543,2.383532 0,1.314715 -1.069129,2.384482 -2.383543,2.384482 h -25.573955 c -0.890481,0 -1.612688,0.721906 -1.612688,1.612695 0,0.890471 0.722207,1.612695 1.612688,1.612695 h 25.573955 c 3.092838,0 5.608919,-2.516741 5.608919,-5.609872 0,-3.092813 -2.516081,-5.608609 -5.608919,-5.608609 l -13.968801,-0.0011 c -5.487705,0 -9.952072,-4.464661 -9.952072,-9.952055 0,-5.488026 4.464367,-9.953008 9.952072,-9.953008 h 31.7892638 c 0.021519,0 0.042933,-3.1e-4 0.064382,-0.0014 l 0.3090333,-0.01231 c 0.6010275,-0.02399 1.1392253,-0.380682 1.3949186,-0.925509 0.2559756,-0.544823 0.1875014,-1.186557 -0.1777294,-1.664779"
       style="fill:#808080;fill-opacity:1;fill-rule:nonzero;stroke:none;stroke-width:0.315657"
       id="path5026" />
    <path
       d="m 1389.9405,17.596323 c 0,15.778 -12.787,28.567 -28.566,28.567 -15.777,0 -28.565,-12.789 -28.565,-28.567 0,-14.9849995 11.551,-27.2749995 26.237,-28.461 -5.199,-47.71299 -45.727,-84.97 -94.799,-84.97 -25.947,0 -50.217,10.296 -68.087,28.57501 h 90.555 c 23.02,0 41.748,18.72801 41.748,41.74899 0,23.0180105 -18.728,41.745 -41.748,41.745 l -44.253,0.003 c -4.164,0 -7.551,3.387 -7.551,7.551 0,4.164 3.387,7.552 7.551,7.552 h 81.019 c 2.821,0 5.109,2.287 5.109,5.109 0,2.822 -2.288,5.109 -5.109,5.109 h -81.019 c -9.798,0 -17.77,-7.972 -17.77,-17.77 0,-9.798 7.972,-17.7689995 17.77,-17.7689995 l 44.253,-0.003 c 17.386,0 31.53,-14.14299 31.53,-31.5270005 0,-17.387 -14.144,-31.53099 -31.53,-31.53099 h -100.659 l -1.088,0.01 c -1.964,0.01 -3.758,-1.087 -4.627,-2.844 -0.869,-1.757 -0.656,-3.857 0.548,-5.403 20.173,-25.912 50.556,-40.773003 83.358,-40.773003 55.07,0 100.422,42.381003 105.169,96.2400035 11.861,3.475 20.524,14.431 20.524,27.4079995"
       style="fill:#808080;fill-opacity:1;fill-rule:nonzero;stroke:none;stroke-width:0.999998"
       id="path5022-0"
       clip-path="url(#clipPath7619)"
       transform="matrix(0.31565782,0,0,-0.31565782,-432.03755,66.568335)" />
    <path
       d="m 1785.8769,98.624611 c -20.17,26.407999 -50.773,41.553989 -83.963,41.553989 -55.549,0 -101.214,-43.115989 -105.29,-97.639984 -97.4806,-92.00563 71.6338,-21.24571 10.342,0.98099 4.515,48.415995 45.371,86.440994 94.948,86.440994 26.368,0 50.929,-10.584 68.86,-29.367 h -90.644 c -23.02,0 -41.747,-18.727999 -41.747,-41.749004 0,-23.018 18.727,-41.745 41.747,-41.745 l 44.253,-0.003 c 4.164,0 7.551,-3.38799 7.551,-7.5509901 0,-4.16501 -3.387,-7.554 -7.551,-7.554 h -81.018 c -2.821,0 -5.109,-2.28700997 -5.109,-5.10902 0,-2.82099 2.288,-5.109 5.109,-5.109 h 81.018 c 9.798,0 17.769,7.97301003 17.769,17.772 0,9.7980101 -7.971,17.7680201 -17.769,17.7680201 l -44.253,0.003 c -17.385,0 -31.528,14.14399 -31.528,31.52799 0,17.386005 14.143,31.531005 31.528,31.531005 h 100.708 c 0.068,0 0.136,9.7e-4 0.204,0.004 l 0.979,0.039 c 1.904,0.076 3.609,1.206 4.419,2.932 0.811,1.726 0.594,3.759 -0.563,5.274"
       style="fill:#ffffff;fill-opacity:1;fill-rule:nonzero;stroke:none;stroke-width:0.999998"
       id="path5026-4-0"
       sodipodi:nodetypes="csccscssccsssssssccssscscc"
       clip-path="url(#clipPath7575)"
       transform="matrix(0.31657062,0,0,-0.31657062,-268.17349,87.915384)" />
  </g>
</svg>
