<?xml version="1.0" encoding="UTF-8" standalone="no"?>
<svg
   xmlns:dc="http://purl.org/dc/elements/1.1/"
   xmlns:cc="http://creativecommons.org/ns#"
   xmlns:rdf="http://www.w3.org/1999/02/22-rdf-syntax-ns#"
   xmlns:svg="http://www.w3.org/2000/svg"
   xmlns="http://www.w3.org/2000/svg"
   xmlns:sodipodi="http://sodipodi.sourceforge.net/DTD/sodipodi-0.dtd"
   xmlns:inkscape="http://www.inkscape.org/namespaces/inkscape"
   width="64px"
   height="64px"
   viewBox="0 0 64 64"
   version="1.1"
   id="svg2131"
   sodipodi:docname="mint.svg"
   inkscape:version="1.0.1 (0767f8302a, 2020-10-17)">
  <metadata
     id="metadata2137">
    <rdf:RDF>
      <cc:Work
         rdf:about="">
        <dc:format>image/svg+xml</dc:format>
        <dc:type
           rdf:resource="http://purl.org/dc/dcmitype/StillImage" />
      </cc:Work>
    </rdf:RDF>
  </metadata>
  <defs
     id="defs2135" />
  <sodipodi:namedview
     pagecolor="#ffffff"
     bordercolor="#666666"
     borderopacity="1"
     objecttolerance="10"
     gridtolerance="10"
     guidetolerance="10"
     inkscape:pageopacity="0"
     inkscape:pageshadow="2"
     inkscape:window-width="1853"
     inkscape:window-height="1025"
     id="namedview2133"
     showgrid="false"
     inkscape:zoom="9.7006212"
     inkscape:cx="25.089618"
     inkscape:cy="32.081513"
     inkscape:window-x="67"
     inkscape:window-y="27"
     inkscape:window-maximized="1"
     inkscape:current-layer="svg2131" />
  <!-- Generator: Sketch 56.3 (81716) - https://sketch.com -->
  <title
     id="title1973">Mint</title>
  <desc
     id="desc1975">Created with Sketch.</desc>
  <path
     d="m 58.041977,43.075946 v 7.668994 c 0,1.680999 -1.246186,3.261102 -3.455582,4.650223 -0.313814,0.191882 -0.648488,0.392774 -1.013093,0.573846 0,0 -0.01,0 -0.01,0.0099 -0.314721,0.171163 -0.648489,0.332416 -1.003117,0.503579 -1.186325,0.553126 -2.554046,1.066614 -4.054186,1.519745 -0.333767,0.100896 -0.668442,0.200892 -1.013093,0.301787 h -0.01 c -0.324697,0.09009 -0.658465,0.181073 -1.003116,0.272059 -1.339332,0.338993 -2.691815,0.624494 -4.054186,0.855814 -0.333767,0.05946 -0.668442,0.120715 -1.013093,0.171163 h -0.0091 c -0.335581,0.04955 -0.659372,0.109904 -1.004023,0.150443 -1.306953,0.190982 -2.654721,0.342326 -4.053279,0.46304 -0.334674,0.02973 -0.668442,0.06036 -1.013093,0.08108 h -0.01 c -1.6826,0.126834 -3.369018,0.197441 -5.056395,0.211701 -0.335582,0.009 -0.669349,0.009 -1.014,0.009 h -0.01 c -0.344651,0 -0.669349,0 -1.003116,-0.0099 -1.691008,-0.01402 -3.38106,-0.08463 -5.067279,-0.211701 h -0.0091 c -0.344651,-0.01982 -0.669349,-0.05045 -1.004023,-0.08108 -1.355411,-0.114063 -2.707103,-0.268178 -4.053279,-0.46214 -0.344651,-0.04054 -0.679326,-0.100896 -1.013093,-0.151344 h -0.01 C 16.73808,59.552605 16.413382,59.49135 16.078708,59.430992 14.71664,59.199655 13.36446,58.914154 12.025429,58.575178 11.680777,58.485088 11.336126,58.395007 11.012336,58.304921 h -0.01 C 10.657884,58.203134 10.333186,58.103138 9.9994186,58.002242 8.4992791,57.549111 7.1315581,57.035623 5.9452326,56.482497 5.6004108,56.32557 5.2624123,56.154255 4.9321395,55.969009 c 0,0 -0.00907,0 -0.00907,-0.0099 C 4.5675349,55.787937 4.2337674,55.596955 3.9190465,55.395163 1.7096512,54.016852 0.45348837,52.425939 0.45348837,50.74494 v -7.668994 z"
     id="Path"
     fill="#10ba97"
     fill-rule="nonzero"
     style="stroke:none;stroke-width:1;fill:#1c9fb6;fill-opacity:1" />
  <path
     d="m 58.041977,43.075946 c 0,1.680999 -1.246186,3.261102 -3.455582,4.630404 -0.32379,0.210801 -0.658465,0.411692 -1.023069,0.592764 -0.314721,0.181072 -0.648489,0.342326 -1.003117,0.513488 -1.186325,0.554027 -2.554046,1.056705 -4.054186,1.519746 -0.333767,0.100896 -0.668442,0.201792 -1.013093,0.301787 h -0.01 c -0.324697,0.09099 -0.658465,0.181973 -1.003116,0.272059 -1.339304,0.339112 -2.691791,0.624614 -4.054186,0.855813 -0.333767,0.06036 -0.668442,0.120715 -1.013093,0.171163 h -0.0091 c -0.335581,0.05045 -0.659372,0.110806 -1.004023,0.150443 -1.306953,0.191883 -2.654721,0.342326 -4.053279,0.463041 -0.334674,0.03063 -0.668442,0.06036 -1.013093,0.08108 h -0.01 c -1.682583,0.127118 -3.36901,0.197726 -5.056395,0.211701 -0.335582,0.009 -0.669349,0.009 -1.014,0.009 h -0.01 c -0.344651,0 -0.668442,0 -1.003116,-0.009 -1.691015,-0.01373 -3.381076,-0.08434 -5.067279,-0.211701 h -0.0091 c -0.344651,-0.02072 -0.669349,-0.05045 -1.004023,-0.08108 -1.355414,-0.114422 -2.707104,-0.268837 -4.053279,-0.463041 -0.344651,-0.03964 -0.679326,-0.09999 -1.013093,-0.150443 h -0.01 C 16.738104,51.88272 16.413406,51.822365 16.078732,51.762007 14.71664,51.530792 13.364456,51.24529 12.025453,50.906194 11.680801,50.816104 11.33615,50.725121 11.01236,50.634135 h -0.01 C 10.657884,50.53414 10.333186,50.433244 9.9994186,50.332348 8.4992791,49.879217 7.1315581,49.366629 5.9452326,48.812602 5.5915116,48.651349 5.2559302,48.480186 4.9321395,48.299114 c 0,0 -0.00907,0 -0.00907,-0.009 C 4.5675349,48.118943 4.2337674,47.92706 3.9190465,47.725268 1.7096512,46.346957 0.45348837,44.756945 0.45348837,43.075946 c 0,-5.395231 12.89993063,-9.774296 28.79923263,-9.774296 15.899302,0 28.789256,4.379065 28.789256,9.774296 z"
     id="path1978"
     fill="#21d8b3"
     fill-rule="nonzero"
     style="stroke:none;stroke-width:1;fill:#24ccec;fill-opacity:1" />
  <path
     d="m 29.16293,50.117944 c -0.286604,0 -0.558697,0 -0.838953,-0.009 -1.635858,-0.01376 -3.270815,-0.08106 -4.90221,-0.201792 l -0.124255,-0.01081 h -0.05079 c -0.260302,-0.01621 -0.509721,-0.03964 -0.763675,-0.06306 -1.32959,-0.111028 -2.65557,-0.261237 -3.976186,-0.450428 -0.273,-0.03423 -0.464372,-0.06576 -0.654837,-0.09549 l -0.558697,-0.08558 C 17.09107,49.169342 16.571372,49.074752 16.571372,49.074752 15.271307,48.8551 13.980813,48.582815 12.703116,48.258575 12.397465,48.1793 12.068233,48.091917 11.758047,48.006336 L 10.79393,47.718061 C 9.7325385,47.402198 8.6902278,47.026226 7.6721163,46.59199 V 46.58028 L 6.1393256,45.839775 5.6522791,45.568617 h -0.019046 c -0.07463,-0.04425 -0.1484108,-0.0899 -0.2213024,-0.13693 -1.638,-1.022473 -2.2084883,-1.905312 -2.2084883,-2.355741 0,-2.482761 9.8896746,-7.042898 26.0492786,-7.042898 16.153256,0 26.039302,4.560137 26.039302,7.042898 0,0.448627 -0.565953,1.32426 -2.160418,2.3125 -0.25709,0.171229 -0.52388,0.327636 -0.799047,0.468445 l -0.148744,0.08018 c -0.254861,0.146839 -0.528768,0.275662 -0.816279,0.414394 -0.988605,0.462139 -2.233884,0.927882 -3.676884,1.372905 l -0.952325,0.281068 c -0.310187,0.08648 -0.630349,0.173865 -0.959582,0.259446 -1.281558,0.324309 -2.536814,0.589161 -3.81293,0.804465 -0.281163,0.05045 -0.536023,0.09729 -0.791791,0.136931 l -0.552349,0.08468 c -0.178674,0.02883 -0.358255,0.05856 -0.544186,0.08108 -1.287907,0.187379 -2.561302,0.332417 -3.969837,0.454032 -0.292046,0.02703 -0.571395,0.05225 -0.858907,0.07027 l -0.175046,0.01081 c -1.606592,0.120105 -3.216761,0.187105 -4.827838,0.200891 -0.342837,0.009 -0.630348,0.0099 -0.921488,0.0099 H 29.16293 Z"
     id="path1980"
     fill="#10ba97"
     fill-rule="nonzero"
     style="stroke:none;stroke-width:1;fill:#1c9fb6;fill-opacity:1" />
  <path
     d="M 4.9221628,55.959099 V 44.665959"
     id="path1982"
     style="fill:none;fill-rule:evenodd;stroke:none;stroke-width:1" />
  <path
     d="m 5.9461395,48.812602 v 7.669895 c -0.3451288,-0.156904 -0.6834304,-0.32822 -1.014,-0.513488 0,0 -0.00907,0 -0.00907,-0.0099 -0.3555346,-0.171172 -0.6893021,-0.362154 -1.004023,-0.563946 v -7.669895 c 0.313814,0.201792 0.6484884,0.392774 1.0031163,0.563936 0,0.0099 0.00998,0.0099 0.00998,0.0099 0.3246977,0.181072 0.6593721,0.352235 1.014,0.513488 z"
     id="path1984"
     fill="#09997b"
     fill-rule="nonzero"
     style="stroke:none;stroke-width:1;fill:#177789;fill-opacity:1" />
  <path
     d="M 11.001628,58.304029 V 50.634135"
     id="path1986"
     style="fill:none;fill-rule:evenodd;stroke:none;stroke-width:1" />
  <path
     d="m 12.026512,50.906194 v 7.669894 c -0.344651,-0.09008 -0.689303,-0.181072 -1.014,-0.272059 h -0.01 C 10.657884,58.203134 10.333186,58.103138 9.9994186,58.002242 v -7.669894 c 0.3337674,0.100896 0.6584654,0.201792 1.0031164,0.301787 h 0.01 c 0.324697,0.09099 0.668441,0.181973 1.013093,0.272059 z"
     id="path1988"
     fill="#09997b"
     fill-rule="nonzero"
     style="stroke:none;stroke-width:1;fill:#177789;fill-opacity:1" />
  <path
     d="M 17.082907,59.602164 V 51.93317"
     id="path1990"
     style="fill:none;fill-rule:evenodd;stroke:none;stroke-width:1" />
  <path
     d="m 18.105977,52.083613 v 7.669895 c -0.344651,-0.04054 -0.679326,-0.100896 -1.013093,-0.151344 h -0.01 c -0.344651,-0.04955 -0.669349,-0.110805 -1.004023,-0.171163 v -7.668994 c 0.335581,0.06036 0.659372,0.120715 1.004023,0.171163 h 0.0091 c 0.335581,0.05045 0.669349,0.110806 1.014,0.150443 z"
     id="path1992"
     fill="#09997b"
     fill-rule="nonzero"
     style="stroke:none;stroke-width:1;fill:#177789;fill-opacity:1" />
  <path
     d="M 23.162372,60.297626 V 52.627731"
     id="path1994"
     style="fill:none;fill-rule:evenodd;stroke:none;stroke-width:1" />
  <path
     d="m 24.186349,52.697998 v 7.669894 c -0.344651,-0.02072 -0.679326,-0.04054 -1.014,-0.07117 h -0.0091 c -0.344651,-0.01982 -0.669349,-0.05045 -1.004023,-0.08108 v -7.668994 c 0.334674,0.03063 0.658465,0.06036 1.003116,0.08108 h 0.01 c 0.335581,0.02973 0.669349,0.04955 1.014,0.07027 z"
     id="path1996"
     fill="#09997b"
     fill-rule="nonzero"
     style="stroke:none;stroke-width:1;fill:#177789;fill-opacity:1" />
  <path
     d="M 29.242744,60.518335 V 52.848441"
     id="path1998"
     style="fill:none;fill-rule:evenodd;stroke:none;stroke-width:1" />
  <path
     d="m 30.265814,52.838531 v 7.669895 c -0.333768,0.0099 -0.668442,0.0099 -1.013093,0.0099 h -0.01 c -0.344651,0 -0.669349,0 -1.003116,-0.0099 v -7.669895 c 0.334674,0.0099 0.658465,0.0099 1.003116,0.0099 h 0.01 c 0.344651,0 0.679325,0 1.013093,-0.009 z"
     id="path2000"
     fill="#09997b"
     fill-rule="nonzero"
     style="stroke:none;stroke-width:1;fill:#177789;fill-opacity:1" />
  <path
     d="M 35.323116,60.297626 V 52.627731"
     id="path2002"
     style="fill:none;fill-rule:evenodd;stroke:none;stroke-width:1" />
  <path
     d="m 36.346186,52.546654 v 7.669894 c -0.334674,0.02973 -0.668442,0.06036 -1.013093,0.08108 h -0.01 c -0.335581,0.02973 -0.659372,0.04955 -1.004023,0.07027 v -7.669894 c 0.344651,-0.02072 0.669349,-0.04054 1.004023,-0.07027 h 0.0091 c 0.344651,-0.02072 0.680233,-0.05045 1.014,-0.08108 z"
     id="path2004"
     fill="#09997b"
     fill-rule="nonzero"
     style="stroke:none;stroke-width:1;fill:#177789;fill-opacity:1" />
  <path
     d="M 41.727259,59.602164 V 51.933171"
     id="path2006"
     style="fill:none;fill-rule:evenodd;stroke:none;stroke-width:1" />
  <path
     d="m 42.971671,51.762008 v 7.668994 c -0.407082,0.06036 -0.814163,0.121615 -1.23338,0.171162 h -0.01103 c -0.408184,0.05045 -0.802027,0.110806 -1.221244,0.151344 v -7.669894 c 0.419217,-0.03964 0.814163,-0.09999 1.220141,-0.150443 h 0.01213 c 0.419217,-0.05045 0.826298,-0.110806 1.23338,-0.171163 z"
     fill="#09997b"
     fill-rule="nonzero"
     id="path2008"
     style="stroke:none;stroke-width:1;fill:#177789;fill-opacity:1" />
  <path
     d="M 47.748446,58.304029 V 50.634135"
     id="path2012"
     style="fill:none;fill-rule:evenodd;stroke:none;stroke-width:1" />
  <path
     d="m 48.992857,50.332348 v 7.669894 c -0.405978,0.100896 -0.81306,0.200891 -1.232276,0.301787 h -0.01214 c -0.394947,0.09009 -0.800925,0.181073 -1.220141,0.272059 v -7.669895 c 0.419216,-0.09009 0.825194,-0.181072 1.220141,-0.272058 h 0.01214 c 0.419216,-0.09999 0.826298,-0.200891 1.232276,-0.301787 z"
     fill="#09997b"
     fill-rule="nonzero"
     id="path2014"
     style="stroke:none;stroke-width:1;fill:#177789;fill-opacity:1" />
  <path
     d="M 53.563326,55.978918 V 48.299114"
     id="path2018"
     style="fill:none;fill-rule:evenodd;stroke:none;stroke-width:1" />
  <path
     d="m 54.586395,47.705449 v 7.689714 c -0.313814,0.191882 -0.648488,0.392774 -1.013093,0.573846 0,0 -0.01,0 -0.01,0.0099 -0.314721,0.171163 -0.648489,0.332416 -1.003117,0.503579 v -7.670796 c 0.353721,-0.171162 0.689303,-0.332416 1.003117,-0.513488 0.364604,-0.180171 0.698372,-0.381963 1.023069,-0.593664 z"
     id="path2020"
     fill="#09997b"
     fill-rule="nonzero"
     style="stroke:none;stroke-width:1;fill:#177789;fill-opacity:1" />
  <path
     d="m 63.97221,28.192225 v 7.668994 c 0,1.680999 -1.246186,3.261102 -3.455582,4.650223 -0.313814,0.191882 -0.648488,0.392774 -1.013093,0.573846 0,0 -0.01,0 -0.01,0.0099 -0.314721,0.171163 -0.648489,0.332416 -1.003117,0.503579 -1.186325,0.553126 -2.554046,1.066614 -4.054186,1.519745 -0.333767,0.100896 -0.668442,0.200892 -1.013093,0.301787 h -0.01 c -0.324697,0.09009 -0.658465,0.181073 -1.003116,0.272059 -1.339332,0.338993 -2.691815,0.624494 -4.054186,0.855814 -0.333767,0.05946 -0.668442,0.120715 -1.013093,0.171163 h -0.0091 c -0.335581,0.04955 -0.659372,0.109904 -1.004023,0.150443 -1.306953,0.190982 -2.654721,0.342326 -4.053279,0.46304 -0.334674,0.02973 -0.668442,0.06036 -1.013093,0.08108 h -0.01 c -1.6826,0.126834 -3.369018,0.197441 -5.056395,0.211701 -0.335582,0.009 -0.669349,0.009 -1.014,0.009 h -0.01 c -0.344651,0 -0.669349,0 -1.003116,-0.0099 -1.691008,-0.01402 -3.38106,-0.08463 -5.067279,-0.211701 h -0.0091 c -0.344651,-0.01982 -0.669349,-0.05045 -1.004023,-0.08108 -1.355411,-0.114063 -2.707103,-0.268178 -4.053279,-0.46214 -0.344651,-0.04054 -0.679326,-0.100896 -1.013093,-0.151344 h -0.01 C 22.668313,44.668884 22.343615,44.607629 22.008941,44.547271 20.646873,44.315934 19.294693,44.030433 17.955662,43.691457 17.61101,43.601367 17.266359,43.511286 16.942569,43.4212 h -0.01 c -0.344452,-0.101787 -0.66915,-0.201783 -1.002917,-0.302679 -1.50014,-0.453131 -2.867861,-0.966619 -4.054186,-1.519745 -0.344822,-0.156927 -0.682821,-0.328242 -1.013094,-0.513488 0,0 -0.0091,0 -0.0091,-0.0099 C 10.497768,40.904216 10.164,40.713234 9.8492795,40.511442 7.6398842,39.133131 6.3837214,37.542218 6.3837214,35.861219 v -7.668994 z"
     id="path2025"
     fill="#10ba97"
     fill-rule="nonzero"
     style="stroke:none;stroke-width:1;fill:#1c9fb6;fill-opacity:1" />
  <path
     d="m 63.97221,28.192225 c 0,1.680999 -1.246186,3.261102 -3.455582,4.630404 -0.32379,0.210801 -0.658465,0.411692 -1.023069,0.592764 -0.314721,0.181072 -0.648489,0.342326 -1.003117,0.513488 -1.186325,0.554027 -2.554046,1.056705 -4.054186,1.519746 -0.333767,0.100896 -0.668442,0.201792 -1.013093,0.301787 h -0.01 c -0.324697,0.09099 -0.658465,0.181973 -1.003116,0.272059 -1.339304,0.339112 -2.691791,0.624614 -4.054186,0.855813 -0.333767,0.06036 -0.668442,0.120715 -1.013093,0.171163 h -0.0091 c -0.335581,0.05045 -0.659372,0.110806 -1.004023,0.150443 -1.306953,0.191883 -2.654721,0.342326 -4.053279,0.463041 -0.334674,0.03063 -0.668442,0.06036 -1.013093,0.08108 h -0.01 c -1.682583,0.127118 -3.36901,0.197726 -5.056395,0.211701 -0.335582,0.009 -0.669349,0.009 -1.014,0.009 h -0.01 c -0.344651,0 -0.668442,0 -1.003116,-0.009 -1.691015,-0.01373 -3.381076,-0.08434 -5.067279,-0.211701 h -0.0091 c -0.344651,-0.02072 -0.669349,-0.05045 -1.004023,-0.08108 -1.355414,-0.114422 -2.707104,-0.268837 -4.053279,-0.463041 -0.344651,-0.03964 -0.679326,-0.09999 -1.013093,-0.150443 h -0.01 c -0.344651,-0.05045 -0.669349,-0.110805 -1.004023,-0.171163 -1.362092,-0.231215 -2.714276,-0.516717 -4.053279,-0.855813 -0.344652,-0.09009 -0.689303,-0.181073 -1.013093,-0.272059 h -0.01 c -0.344476,-0.09999 -0.669174,-0.200891 -1.002941,-0.301787 -1.50014,-0.453131 -2.867861,-0.965719 -4.054186,-1.519746 -0.353721,-0.161253 -0.689303,-0.332416 -1.013094,-0.513488 0,0 -0.0091,0 -0.0091,-0.009 C 10.497768,33.235222 10.164,33.043339 9.8492795,32.841547 7.6398842,31.463236 6.3837214,29.873224 6.3837214,28.192225 c 0,-5.395231 12.8999306,-9.774296 28.7992326,-9.774296 15.899302,0 28.789256,4.379065 28.789256,9.774296 z"
     id="path2027"
     fill="#21d8b3"
     fill-rule="nonzero"
     style="stroke:none;stroke-width:1;fill:#24ccec;fill-opacity:1" />
  <path
     d="m 35.093163,35.234223 c -0.286604,0 -0.558697,0 -0.838953,-0.009 -1.635858,-0.01376 -3.270815,-0.08106 -4.90221,-0.201792 l -0.124255,-0.01081 h -0.05079 c -0.260302,-0.01621 -0.509721,-0.03964 -0.763675,-0.06306 -1.32959,-0.111028 -2.65557,-0.261237 -3.976186,-0.450428 -0.273,-0.03423 -0.464372,-0.06576 -0.654837,-0.09549 L 23.22356,34.318063 C 23.021303,34.285621 22.501605,34.191031 22.501605,34.191031 21.20154,33.971379 19.911046,33.699094 18.633349,33.374854 18.327698,33.295579 17.998466,33.208196 17.68828,33.122615 L 16.724163,32.83434 c -1.061391,-0.315863 -2.103702,-0.691835 -3.121814,-1.126071 v -0.01171 l -1.53279,-0.740505 -0.487047,-0.271158 h -0.01905 c -0.07463,-0.04425 -0.148411,-0.0899 -0.221302,-0.13693 -1.6380003,-1.022473 -2.2084886,-1.905312 -2.2084886,-2.355741 0,-2.482761 9.8896746,-7.042898 26.0492786,-7.042898 16.153256,0 26.039302,4.560137 26.039302,7.042898 0,0.448627 -0.565953,1.32426 -2.160418,2.3125 -0.25709,0.171229 -0.52388,0.327636 -0.799047,0.468445 l -0.148744,0.08018 c -0.254861,0.146839 -0.528768,0.275662 -0.816279,0.414394 -0.988605,0.462139 -2.233884,0.927882 -3.676884,1.372905 l -0.952325,0.281068 c -0.310187,0.08648 -0.630349,0.173865 -0.959582,0.259446 -1.281558,0.324309 -2.536814,0.589161 -3.81293,0.804465 -0.281163,0.05045 -0.536023,0.09729 -0.791791,0.136931 l -0.552349,0.08468 c -0.178674,0.02883 -0.358255,0.05856 -0.544186,0.08108 -1.287907,0.187379 -2.561302,0.332417 -3.969837,0.454032 -0.292046,0.02703 -0.571395,0.05225 -0.858907,0.07027 l -0.175046,0.01081 c -1.606592,0.120105 -3.216761,0.187105 -4.827838,0.200891 -0.342837,0.009 -0.630348,0.0099 -0.921488,0.0099 h -0.161442 z"
     id="path2029"
     fill="#10ba97"
     fill-rule="nonzero"
     style="stroke:none;stroke-width:1;fill:#1c9fb6;fill-opacity:1" />
  <path
     d="M 10.852396,41.075378 V 29.782238"
     id="path2031"
     style="fill:none;fill-rule:evenodd;stroke:none;stroke-width:1" />
  <path
     d="m 10.852396,50.969488 v -0.01081"
     id="path2033"
     style="fill:none;fill-rule:evenodd;stroke:none;stroke-width:1" />
  <path
     d="m 11.876373,33.928881 v 7.669895 c -0.345129,-0.156904 -0.683431,-0.32822 -1.014001,-0.513488 0,0 -0.0091,0 -0.0091,-0.0099 C 10.497768,40.904216 10.164,40.713234 9.8492795,40.511442 v -7.669895 c 0.3138135,0.201792 0.6484885,0.392774 1.0031165,0.563936 0,0.0099 0.01,0.0099 0.01,0.0099 0.324698,0.181072 0.659372,0.352235 1.014,0.513488 z"
     id="path2035"
     fill="#09997b"
     fill-rule="nonzero"
     style="stroke:none;stroke-width:1;fill:#177789;fill-opacity:1" />
  <path
     d="M 16.931861,43.420308 V 35.750414"
     id="path2037"
     style="fill:none;fill-rule:evenodd;stroke:none;stroke-width:1" />
  <path
     d="m 17.956745,36.022473 v 7.669894 c -0.344651,-0.09008 -0.689303,-0.181072 -1.014,-0.272059 h -0.01 c -0.344628,-0.100895 -0.669326,-0.200891 -1.003093,-0.301787 v -7.669894 c 0.333767,0.100896 0.658465,0.201792 1.003116,0.301787 h 0.01 c 0.324697,0.09099 0.668441,0.181973 1.013093,0.272059 z"
     id="path2039"
     fill="#09997b"
     fill-rule="nonzero"
     style="stroke:none;stroke-width:1;fill:#177789;fill-opacity:1" />
  <path
     d="M 23.01314,44.718443 V 37.049449"
     id="path2041"
     style="fill:none;fill-rule:evenodd;stroke:none;stroke-width:1" />
  <path
     d="m 24.03621,37.199892 v 7.669895 c -0.344651,-0.04054 -0.679326,-0.100896 -1.013093,-0.151344 h -0.01 c -0.344651,-0.04955 -0.669349,-0.110805 -1.004023,-0.171163 v -7.668994 c 0.335581,0.06036 0.659372,0.120715 1.004023,0.171163 h 0.0091 c 0.335581,0.05045 0.669349,0.110806 1.014,0.150443 z"
     id="path2043"
     fill="#09997b"
     fill-rule="nonzero"
     style="stroke:none;stroke-width:1;fill:#177789;fill-opacity:1" />
  <path
     d="M 29.092605,45.413905 V 37.74401"
     id="path2045"
     style="fill:none;fill-rule:evenodd;stroke:none;stroke-width:1" />
  <path
     d="m 30.116582,37.814277 v 7.669894 c -0.344651,-0.02072 -0.679326,-0.04054 -1.014,-0.07117 h -0.0091 c -0.344651,-0.01982 -0.669349,-0.05045 -1.004023,-0.08108 v -7.668994 c 0.334674,0.03063 0.658465,0.06036 1.003116,0.08108 h 0.01 c 0.335581,0.02973 0.669349,0.04955 1.014,0.07027 z"
     id="path2047"
     fill="#09997b"
     fill-rule="nonzero"
     style="stroke:none;stroke-width:1;fill:#177789;fill-opacity:1" />
  <path
     d="M 35.172977,45.634614 V 37.96472"
     id="path2049"
     style="fill:none;fill-rule:evenodd;stroke:none;stroke-width:1" />
  <path
     d="m 36.196047,37.95481 v 7.669895 c -0.333768,0.0099 -0.668442,0.0099 -1.013093,0.0099 h -0.01 c -0.344651,0 -0.669349,0 -1.003116,-0.0099 V 37.95481 c 0.334674,0.0099 0.658465,0.0099 1.003116,0.0099 h 0.01 c 0.344651,0 0.679325,0 1.013093,-0.009 z"
     id="path2051"
     fill="#09997b"
     fill-rule="nonzero"
     style="stroke:none;stroke-width:1;fill:#177789;fill-opacity:1" />
  <path
     d="M 41.253349,45.413905 V 37.74401"
     id="path2053"
     style="fill:none;fill-rule:evenodd;stroke:none;stroke-width:1" />
  <path
     d="m 42.276419,37.662933 v 7.669894 c -0.334674,0.02973 -0.668442,0.06036 -1.013093,0.08108 h -0.01 c -0.335581,0.02973 -0.659372,0.04955 -1.004023,0.07027 v -7.669894 c 0.344651,-0.02072 0.669349,-0.04054 1.004023,-0.07027 h 0.0091 c 0.344651,-0.02072 0.680233,-0.05045 1.014,-0.08108 z"
     id="path2055"
     fill="#09997b"
     fill-rule="nonzero"
     style="stroke:none;stroke-width:1;fill:#177789;fill-opacity:1" />
  <path
     d="M 47.657492,44.718443 V 37.04945"
     id="path2057"
     style="fill:none;fill-rule:evenodd;stroke:none;stroke-width:1" />
  <path
     d="m 48.901904,36.878287 v 7.668994 c -0.407082,0.06036 -0.814163,0.121615 -1.23338,0.171162 h -0.01103 c -0.408184,0.05045 -0.802027,0.110806 -1.221244,0.151344 v -7.669894 c 0.419217,-0.03964 0.814163,-0.09999 1.220141,-0.150443 h 0.01214 c 0.419217,-0.05045 0.826298,-0.110806 1.23338,-0.171163 z"
     fill="#09997b"
     fill-rule="nonzero"
     id="path2059"
     style="stroke:none;stroke-width:1;fill:#177789;fill-opacity:1" />
  <path
     d="M 53.678679,43.420309 V 35.750414"
     id="path2063"
     style="fill:none;fill-rule:evenodd;stroke:none;stroke-width:1" />
  <path
     d="m 54.92309,35.448627 v 7.669894 c -0.405978,0.100896 -0.81306,0.200891 -1.232276,0.301788 h -0.01214 c -0.394947,0.09008 -0.800925,0.181072 -1.220141,0.272058 v -7.669895 c 0.419216,-0.09009 0.825194,-0.181072 1.220141,-0.272058 h 0.01214 c 0.419216,-0.09999 0.826298,-0.200891 1.232276,-0.301787 z"
     fill="#09997b"
     fill-rule="nonzero"
     id="path2065"
     style="stroke:none;stroke-width:1;fill:#177789;fill-opacity:1" />
  <path
     d="M 59.493559,41.095197 V 33.415393"
     id="path2069"
     style="fill:none;fill-rule:evenodd;stroke:none;stroke-width:1" />
  <path
     d="m 60.516628,32.821728 v 7.689714 c -0.313814,0.191882 -0.648488,0.392774 -1.013093,0.573846 0,0 -0.01,0 -0.01,0.0099 -0.314721,0.171163 -0.648489,0.332416 -1.003117,0.503579 v -7.670796 c 0.353721,-0.171162 0.689303,-0.332416 1.003117,-0.513488 0.364604,-0.180171 0.698372,-0.381963 1.023069,-0.593664 z"
     id="path2071"
     fill="#09997b"
     fill-rule="nonzero"
     style="stroke:none;stroke-width:1;fill:#177789;fill-opacity:1" />
  <path
     d="m 59.530349,13.308504 v 7.668994 c 0,1.680999 -1.246186,3.261102 -3.455582,4.650223 -0.313814,0.191882 -0.648488,0.392774 -1.013093,0.573846 0,0 -0.01,0 -0.01,0.0099 -0.314721,0.171163 -0.648489,0.332416 -1.003117,0.503579 -1.186325,0.553126 -2.554046,1.066614 -4.054186,1.519745 -0.333767,0.100896 -0.668442,0.200892 -1.013093,0.301787 h -0.01 c -0.324697,0.09009 -0.658465,0.181073 -1.003116,0.272059 -1.339332,0.338993 -2.691815,0.624494 -4.054186,0.855814 -0.333767,0.05946 -0.668442,0.120715 -1.013093,0.171163 h -0.0091 c -0.335581,0.04955 -0.659372,0.109904 -1.004023,0.150443 -1.306953,0.190982 -2.654721,0.342326 -4.053279,0.46304 -0.334674,0.02973 -0.668442,0.06036 -1.013093,0.08108 h -0.01 c -1.6826,0.126834 -3.369018,0.197441 -5.056395,0.211701 -0.335582,0.009 -0.669349,0.009 -1.014,0.009 h -0.01 c -0.344651,0 -0.669349,0 -1.003116,-0.0099 -1.691008,-0.01402 -3.38106,-0.08463 -5.067279,-0.211701 h -0.0091 c -0.344651,-0.01982 -0.669349,-0.05045 -1.004023,-0.08108 -1.355411,-0.114063 -2.707103,-0.268178 -4.053279,-0.46214 -0.344651,-0.04054 -0.679326,-0.100896 -1.013093,-0.151344 h -0.01 c -0.344651,-0.04955 -0.669349,-0.110805 -1.004023,-0.171163 -1.362068,-0.231337 -2.714248,-0.516838 -4.053279,-0.855814 -0.344652,-0.09009 -0.689303,-0.180171 -1.013093,-0.270257 h -0.01 C 12.146256,28.435692 11.821558,28.335696 11.487791,28.2348 9.9876511,27.781669 8.6199301,27.268181 7.4336046,26.715055 7.0887828,26.558128 6.7507843,26.386813 6.4205115,26.201567 c 0,0 -0.00907,0 -0.00907,-0.0099 C 6.0559069,26.020495 5.7221394,25.829513 5.4074185,25.627721 3.1980232,24.24941 1.9418604,22.658497 1.9418604,20.977498 v -7.668994 z"
     id="path2077"
     fill="#10ba97"
     fill-rule="nonzero"
     style="stroke:none;stroke-width:1;fill:#1c9fb6;fill-opacity:1" />
  <path
     d="m 59.530349,13.308504 c 0,1.680999 -1.246186,3.261102 -3.455582,4.630404 -0.32379,0.210801 -0.658465,0.411692 -1.023069,0.592764 -0.314721,0.181072 -0.648489,0.342326 -1.003117,0.513488 -1.186325,0.554027 -2.554046,1.056705 -4.054186,1.519746 -0.333767,0.100896 -0.668442,0.201792 -1.013093,0.301787 h -0.01 c -0.324697,0.09099 -0.658465,0.181973 -1.003116,0.272059 -1.339304,0.339112 -2.691791,0.624614 -4.054186,0.855813 -0.333767,0.06036 -0.668442,0.120715 -1.013093,0.171163 h -0.0091 c -0.335581,0.05045 -0.659372,0.110806 -1.004023,0.150443 -1.306953,0.191883 -2.654721,0.342326 -4.053279,0.463041 -0.334674,0.03063 -0.668442,0.06036 -1.013093,0.08108 h -0.01 c -1.682583,0.127118 -3.36901,0.197726 -5.056395,0.211701 -0.335582,0.009 -0.669349,0.009 -1.014,0.009 h -0.01 c -0.344651,0 -0.668442,0 -1.003116,-0.009 -1.691015,-0.01373 -3.381076,-0.08434 -5.067279,-0.211701 h -0.0091 c -0.344651,-0.02072 -0.669349,-0.05045 -1.004023,-0.08108 -1.355414,-0.114422 -2.707104,-0.268837 -4.053279,-0.463041 -0.344651,-0.03964 -0.679326,-0.09999 -1.013093,-0.150443 h -0.01 c -0.344651,-0.05045 -0.669349,-0.110805 -1.004023,-0.171163 -1.362092,-0.231215 -2.714276,-0.516717 -4.053279,-0.855813 -0.344652,-0.09009 -0.689303,-0.181073 -1.013093,-0.272059 h -0.01 C 12.146256,20.766698 11.821558,20.665802 11.487791,20.564906 9.9876511,20.111775 8.6199301,19.599187 7.4336046,19.04516 7.0798836,18.883907 6.7443022,18.712744 6.4205115,18.531672 c 0,0 -0.00907,0 -0.00907,-0.009 C 6.0559069,18.351501 5.7221394,18.159618 5.4074185,17.957826 3.1980232,16.579515 1.9418604,14.989503 1.9418604,13.308504 c 0,-5.3952311 12.8999306,-9.7742959 28.7992326,-9.7742959 15.899302,0 28.789256,4.3790648 28.789256,9.7742959 z"
     id="path2079"
     fill="#21d8b3"
     fill-rule="nonzero"
     style="stroke:none;stroke-width:1;fill:#24ccec;fill-opacity:1" />
  <path
     d="m 30.651302,20.350502 c -0.286604,0 -0.558697,0 -0.838953,-0.009 -1.635858,-0.01376 -3.270815,-0.08106 -4.90221,-0.201792 L 24.785884,20.1289 h -0.05079 c -0.260302,-0.01621 -0.509721,-0.03964 -0.763675,-0.06306 -1.32959,-0.111028 -2.65557,-0.261237 -3.976186,-0.450428 -0.273,-0.03423 -0.464372,-0.06576 -0.654837,-0.09549 l -0.558697,-0.08558 C 18.579442,19.4019 18.059744,19.30731 18.059744,19.30731 16.759679,19.087658 15.469185,18.815373 14.191488,18.491133 13.885837,18.411858 13.556605,18.324475 13.246419,18.238894 L 12.282302,17.950619 C 11.220911,17.634756 10.1786,17.258784 9.1604883,16.824548 v -0.01171 L 7.6276976,16.072333 7.1406511,15.801175 h -0.019046 c -0.07463,-0.04425 -0.1484108,-0.0899 -0.2213024,-0.13693 -1.638,-1.022473 -2.2084883,-1.905312 -2.2084883,-2.355741 0,-2.482761 9.8896746,-7.0428981 26.0492786,-7.0428981 16.153256,0 26.039302,4.5601371 26.039302,7.0428981 0,0.448627 -0.565953,1.32426 -2.160418,2.3125 -0.25709,0.171229 -0.52388,0.327636 -0.799047,0.468445 l -0.148744,0.08018 c -0.254861,0.146839 -0.528768,0.275662 -0.816279,0.414394 -0.988605,0.462139 -2.233884,0.927882 -3.676884,1.372905 l -0.952325,0.281068 c -0.310187,0.08648 -0.630349,0.173865 -0.959582,0.259446 -1.281558,0.324309 -2.536814,0.589161 -3.81293,0.804465 -0.281163,0.05045 -0.536023,0.09729 -0.791791,0.136931 l -0.552349,0.08468 c -0.178674,0.02883 -0.358255,0.05856 -0.544186,0.08108 -1.287907,0.187379 -2.561302,0.332417 -3.969837,0.454032 -0.292046,0.02703 -0.571395,0.05225 -0.858907,0.07027 l -0.175046,0.01081 c -1.606592,0.120105 -3.216761,0.187105 -4.827838,0.200891 -0.342837,0.009 -0.630348,0.0099 -0.921488,0.0099 h -0.161442 z"
     id="path2081"
     fill="#10ba97"
     fill-rule="nonzero"
     style="stroke:none;stroke-width:1;fill:#1c9fb6;fill-opacity:1" />
  <path
     d="M 6.4105348,26.191657 V 14.898517"
     id="path2083"
     style="fill:none;fill-rule:evenodd;stroke:none;stroke-width:1" />
  <path
     d="m 6.4105348,36.085767 v -0.01081"
     id="path2085"
     style="fill:none;fill-rule:evenodd;stroke:none;stroke-width:1" />
  <path
     d="m 7.4345115,19.04516 v 7.669895 c -0.3451288,-0.156904 -0.6834304,-0.32822 -1.014,-0.513488 0,0 -0.00907,0 -0.00907,-0.0099 -0.3555346,-0.171172 -0.6893021,-0.362154 -1.004023,-0.563946 v -7.669895 c 0.313814,0.201792 0.6484884,0.392774 1.0031163,0.563936 0,0.0099 0.00998,0.0099 0.00998,0.0099 0.3246977,0.181072 0.6593721,0.352235 1.014,0.513488 z"
     id="path2087"
     fill="#09997b"
     fill-rule="nonzero"
     style="stroke:none;stroke-width:1;fill:#177789;fill-opacity:1" />
  <path
     d="M 12.49,28.536587 V 20.866693"
     id="path2089"
     style="fill:none;fill-rule:evenodd;stroke:none;stroke-width:1" />
  <path
     d="m 13.514884,21.138752 v 7.669894 c -0.344651,-0.09008 -0.689303,-0.181072 -1.014,-0.272059 h -0.01 C 12.146256,28.435692 11.821558,28.335696 11.487791,28.2348 v -7.669894 c 0.333767,0.100896 0.658465,0.201792 1.003116,0.301787 h 0.01 c 0.324697,0.09099 0.668441,0.181973 1.013093,0.272059 z"
     id="path2091"
     fill="#09997b"
     fill-rule="nonzero"
     style="stroke:none;stroke-width:1;fill:#177789;fill-opacity:1" />
  <path
     d="M 18.571279,29.834722 V 22.165728"
     id="path2093"
     style="fill:none;fill-rule:evenodd;stroke:none;stroke-width:1" />
  <path
     d="m 19.594349,22.316171 v 7.669895 c -0.344651,-0.04054 -0.679326,-0.100896 -1.013093,-0.151344 h -0.01 c -0.344651,-0.04955 -0.669349,-0.110805 -1.004023,-0.171163 v -7.668994 c 0.335581,0.06036 0.659372,0.120715 1.004023,0.171163 h 0.0091 c 0.335581,0.05045 0.669349,0.110806 1.014,0.150443 z"
     id="path2095"
     fill="#09997b"
     fill-rule="nonzero"
     style="stroke:none;stroke-width:1;fill:#177789;fill-opacity:1" />
  <path
     d="M 24.650744,30.530184 V 22.860289"
     id="path2097"
     style="fill:none;fill-rule:evenodd;stroke:none;stroke-width:1" />
  <path
     d="m 25.674721,22.930556 v 7.669894 c -0.344651,-0.02072 -0.679326,-0.04054 -1.014,-0.07117 h -0.0091 C 24.30697,30.50946 23.982272,30.47883 23.647598,30.4482 v -7.668994 c 0.334674,0.03063 0.658465,0.06036 1.003116,0.08108 h 0.01 c 0.335581,0.02973 0.669349,0.04955 1.014,0.07027 z"
     id="path2099"
     fill="#09997b"
     fill-rule="nonzero"
     style="stroke:none;stroke-width:1;fill:#177789;fill-opacity:1" />
  <path
     d="M 30.731116,30.750893 V 23.080999"
     id="path2101"
     style="fill:none;fill-rule:evenodd;stroke:none;stroke-width:1" />
  <path
     d="m 31.754186,23.071089 v 7.669895 c -0.333768,0.0099 -0.668442,0.0099 -1.013093,0.0099 h -0.01 c -0.344651,0 -0.669349,0 -1.003116,-0.0099 v -7.669895 c 0.334674,0.0099 0.658465,0.0099 1.003116,0.0099 h 0.01 c 0.344651,0 0.679325,0 1.013093,-0.009 z"
     id="path2103"
     fill="#09997b"
     fill-rule="nonzero"
     style="stroke:none;stroke-width:1;fill:#177789;fill-opacity:1" />
  <path
     d="M 36.811488,30.530184 V 22.860289"
     id="path2105"
     style="fill:none;fill-rule:evenodd;stroke:none;stroke-width:1" />
  <path
     d="m 37.834558,22.779212 v 7.669894 c -0.334674,0.02973 -0.668442,0.06036 -1.013093,0.08108 h -0.01 c -0.335581,0.02973 -0.659372,0.04955 -1.004023,0.07027 v -7.669894 c 0.344651,-0.02072 0.669349,-0.04054 1.004023,-0.07027 h 0.0091 c 0.344651,-0.02072 0.680233,-0.05045 1.014,-0.08108 z"
     id="path2107"
     fill="#09997b"
     fill-rule="nonzero"
     style="stroke:none;stroke-width:1;fill:#177789;fill-opacity:1" />
  <path
     d="M 43.215631,29.834722 V 22.165729"
     id="path2109"
     style="fill:none;fill-rule:evenodd;stroke:none;stroke-width:1" />
  <path
     d="m 44.460043,21.994566 v 7.668994 c -0.407082,0.06036 -0.814163,0.121615 -1.23338,0.171162 h -0.01103 c -0.408184,0.05045 -0.802027,0.110806 -1.221244,0.151344 v -7.669894 c 0.419217,-0.03964 0.814163,-0.1 1.220141,-0.150443 h 0.01214 c 0.419217,-0.05045 0.826298,-0.110806 1.23338,-0.171163 z"
     fill="#09997b"
     fill-rule="nonzero"
     id="path2111"
     style="stroke:none;stroke-width:1;fill:#177789;fill-opacity:1" />
  <path
     d="M 49.236818,28.536587 V 20.866693"
     id="path2115"
     style="fill:none;fill-rule:evenodd;stroke:none;stroke-width:1" />
  <path
     d="M 50.481229,20.564906 V 28.2348 c -0.405978,0.100896 -0.81306,0.200891 -1.232276,0.301787 h -0.01214 c -0.394947,0.09009 -0.800925,0.181073 -1.220141,0.272059 v -7.669895 c 0.419216,-0.09008 0.825194,-0.181072 1.220141,-0.272058 h 0.01214 c 0.419216,-0.09999 0.826298,-0.200891 1.232276,-0.301787 z"
     fill="#09997b"
     fill-rule="nonzero"
     id="path2117"
     style="stroke:none;stroke-width:1;fill:#177789;fill-opacity:1" />
  <path
     d="M 55.051698,26.211476 V 18.531672"
     id="path2121"
     style="fill:none;fill-rule:evenodd;stroke:none;stroke-width:1" />
  <path
     d="m 56.074767,17.938007 v 7.689714 c -0.313814,0.191882 -0.648488,0.392774 -1.013093,0.573846 0,0 -0.01,0 -0.01,0.0099 -0.314721,0.171163 -0.648489,0.332416 -1.003117,0.503579 V 19.04425 c 0.353721,-0.171162 0.689303,-0.332416 1.003117,-0.513488 0.364604,-0.180171 0.698372,-0.381963 1.023069,-0.593664 z"
     id="path2123"
     fill="#09997b"
     fill-rule="nonzero"
     style="stroke:none;stroke-width:1;fill:#177789;fill-opacity:1" />
</svg>
